# xmcd CD database file
#
# Track frame offsets:
#	150
#	11658
#	27914
#	47579
#	66208
#	82559
#	98390
#	111980
#	131833
#	139834
#
# Disc length: 2622 seconds
#
# Revision: 0
# Processed by: cddbd v1.5.1PL0 Copyright (c) Steve Scherf et al.
# Submitted via: CDex 1.51
#
DISCID=780a3c0a
DTITLE=Aaron Traffas - Coffee Grounds
DYEAR=2003
DGENRE=Country
TTITLE0=One Man, One Guitar
TTITLE1=Always Loved The Lights
TTITLE2=Sometimes I Forget
TTITLE3=Capture Love
TTITLE4=Stars
TTITLE5=Doldrums
TTITLE6=Archipelago
TTITLE7=200 Miles Away
TTITLE8=Republican
TTITLE9=I Drink Alone
EXTD=YEAR: 2003
EXTT0=
EXTT1=
EXTT2=
EXTT3=
EXTT4=
EXTT5=
EXTT6=
EXTT7=
EXTT8=
EXTT9=
PLAYORDER=
